<svg width="131" height="131" viewBox="0 0 131 131" fill="none" xmlns="http://www.w3.org/2000/svg">
    <circle cx="65.5" cy="65.5" r="63" fill="#F5F9FF" stroke="#E52352" stroke-width="5"/>
    <path d="M57.0327 40.7882L60.5411 78.9826C60.7458 81.231 62.6225 83.0841 65.0682 83.2875C67.8076 83.5153 70.2224 81.5876 70.4614 78.9826L73.9698 40.7882C74.0076 40.3418 74.0124 39.8416 73.9698 39.3814C73.5614 34.9334 69.4389 31.6431 64.7619 32.0311C60.0848 32.4199 56.6243 36.3411 57.0327 40.7882Z" fill="#E52352"/>
    <path d="M65.5039 98.9982C69.3792 98.9982 72.5207 96.0108 72.5207 92.3257C72.5207 88.6405 69.3792 85.6532 65.5039 85.6532C61.6286 85.6532 58.4871 88.6405 58.4871 92.3257C58.4871 96.0108 61.6286 98.9982 65.5039 98.9982Z" fill="#E52352"/>
</svg>
